# Blender v3.1.2 OBJ File: 'Standing-circle.blend'
# www.blender.org
mtllib Standing-circle.mtl
o Cylinder-circle_Cylinder
v 0.000000 -0.031250 -2.000000
v 0.000000 -0.031250 -1.900000
v 0.000000 0.031250 -2.000000
v 0.000000 0.031250 -1.900000
v 0.390181 -0.031250 -1.961571
v 0.370672 -0.031250 -1.863492
v 0.390181 0.031250 -1.961571
v 0.370672 0.031250 -1.863492
v 0.765367 -0.031250 -1.847759
v 0.727099 -0.031250 -1.755371
v 0.765367 0.031250 -1.847759
v 0.727099 0.031250 -1.755371
v 1.111140 -0.031250 -1.662939
v 1.055583 -0.031250 -1.579792
v 1.111140 0.031250 -1.662939
v 1.055583 0.031250 -1.579792
v 1.414214 -0.031250 -1.414214
v 1.343503 -0.031250 -1.343503
v 1.414214 0.031250 -1.414214
v 1.343503 0.031250 -1.343503
v 1.662939 -0.031250 -1.111140
v 1.579792 -0.031250 -1.055583
v 1.662939 0.031250 -1.111140
v 1.579792 0.031250 -1.055583
v 1.847759 -0.031250 -0.765367
v 1.755371 -0.031250 -0.727099
v 1.847759 0.031250 -0.765367
v 1.755371 0.031250 -0.727099
v 1.961571 -0.031250 -0.390181
v 1.863492 -0.031250 -0.370672
v 1.961571 0.031250 -0.390181
v 1.863492 0.031250 -0.370672
v 2.000000 -0.031250 0.000000
v 1.900000 -0.031250 0.000000
v 2.000000 0.031250 0.000000
v 1.900000 0.031250 0.000000
v 1.961571 -0.031250 0.390181
v 1.863492 -0.031250 0.370672
v 1.961571 0.031250 0.390181
v 1.863492 0.031250 0.370672
v 1.847759 -0.031250 0.765367
v 1.755371 -0.031250 0.727098
v 1.847759 0.031250 0.765367
v 1.755371 0.031250 0.727098
v 1.662939 -0.031250 1.111140
v 1.579792 -0.031250 1.055583
v 1.662939 0.031250 1.111140
v 1.579792 0.031250 1.055583
v 1.414214 -0.031250 1.414214
v 1.343503 -0.031250 1.343503
v 1.414214 0.031250 1.414214
v 1.343503 0.031250 1.343503
v 1.055583 -0.031250 1.579792
v 1.111140 -0.031250 1.662939
v 1.055583 0.031250 1.579792
v 1.111140 0.031250 1.662939
v 0.727099 -0.031250 1.755371
v 0.765367 -0.031250 1.847759
v 0.727099 0.031250 1.755371
v 0.765367 0.031250 1.847759
v 0.370672 -0.031250 1.863492
v 0.390181 -0.031250 1.961571
v 0.390181 0.031250 1.961571
v 0.370672 0.031250 1.863492
v -0.000000 -0.031250 2.000000
v -0.000000 -0.031250 1.900000
v -0.000000 0.031250 1.900000
v -0.000000 0.031250 2.000000
v -0.370671 -0.031250 1.863492
v -0.390180 -0.031250 1.961571
v -0.370671 0.031250 1.863492
v -0.390180 0.031250 1.961571
v -0.765367 -0.031250 1.847759
v -0.727099 -0.031250 1.755371
v -0.765367 0.031250 1.847759
v -0.727099 0.031250 1.755371
v -1.055584 -0.031250 1.579792
v -1.111141 -0.031250 1.662939
v -1.055584 0.031250 1.579792
v -1.111141 0.031250 1.662939
v -1.343503 -0.031250 1.343503
v -1.414213 -0.031250 1.414214
v -1.343503 0.031250 1.343503
v -1.414213 0.031250 1.414214
v -1.662939 -0.031250 1.111141
v -1.579792 -0.031250 1.055584
v -1.579792 0.031250 1.055584
v -1.662939 0.031250 1.111141
v -1.847759 -0.031250 0.765367
v -1.755371 -0.031250 0.727099
v -1.755371 0.031250 0.727099
v -1.847759 0.031250 0.765367
v -1.863492 -0.031250 0.370672
v -1.961571 -0.031250 0.390181
v -1.863492 0.031250 0.370672
v -1.961571 0.031250 0.390181
v -1.900000 -0.031250 -0.000000
v -2.000000 -0.031250 -0.000000
v -2.000000 0.031250 -0.000000
v -1.900000 0.031250 -0.000000
v -1.961571 -0.031250 -0.390181
v -1.863492 -0.031250 -0.370672
v -1.863492 0.031250 -0.370672
v -1.961571 0.031250 -0.390181
v -1.847759 -0.031250 -0.765367
v -1.755371 -0.031250 -0.727099
v -1.755371 0.031250 -0.727099
v -1.847759 0.031250 -0.765367
v -1.662939 -0.031250 -1.111140
v -1.579792 -0.031250 -1.055583
v -1.662939 0.031250 -1.111140
v -1.579792 0.031250 -1.055583
v -1.343503 -0.031250 -1.343503
v -1.414214 -0.031250 -1.414213
v -1.343503 0.031250 -1.343503
v -1.414214 0.031250 -1.414213
v -1.111141 -0.031250 -1.662939
v -1.055584 -0.031250 -1.579792
v -1.055584 0.031250 -1.579792
v -1.111141 0.031250 -1.662939
v -0.765367 -0.031250 -1.847759
v -0.727099 -0.031250 -1.755371
v -0.727099 0.031250 -1.755371
v -0.765367 0.031250 -1.847759
v -0.370671 -0.031250 -1.863492
v -0.390180 -0.031250 -1.961571
v -0.370671 0.031250 -1.863492
v -0.390180 0.031250 -1.961571
vt 1.000000 0.500000
vt 1.000000 1.000000
vt 0.968750 1.000000
vt 0.968750 0.500000
vt 0.937500 1.000000
vt 0.937500 0.500000
vt 0.906250 1.000000
vt 0.906250 0.500000
vt 0.875000 1.000000
vt 0.875000 0.500000
vt 0.843750 1.000000
vt 0.843750 0.500000
vt 0.812500 1.000000
vt 0.812500 0.500000
vt 0.781250 1.000000
vt 0.781250 0.500000
vt 0.750000 1.000000
vt 0.750000 0.500000
vt 0.718750 1.000000
vt 0.718750 0.500000
vt 0.687500 1.000000
vt 0.687500 0.500000
vt 0.656250 1.000000
vt 0.656250 0.500000
vt 0.625000 1.000000
vt 0.625000 0.500000
vt 0.593750 1.000000
vt 0.593750 0.500000
vt 0.562500 1.000000
vt 0.562500 0.500000
vt 0.531250 1.000000
vt 0.531250 0.500000
vt 0.500000 1.000000
vt 0.500000 0.500000
vt 0.468750 1.000000
vt 0.468750 0.500000
vt 0.437500 1.000000
vt 0.437500 0.500000
vt 0.406250 1.000000
vt 0.406250 0.500000
vt 0.375000 1.000000
vt 0.375000 0.500000
vt 0.343750 1.000000
vt 0.343750 0.500000
vt 0.312500 1.000000
vt 0.312500 0.500000
vt 0.281250 1.000000
vt 0.281250 0.500000
vt 0.250000 1.000000
vt 0.250000 0.500000
vt 0.218750 1.000000
vt 0.218750 0.500000
vt 0.187500 1.000000
vt 0.187500 0.500000
vt 0.156250 1.000000
vt 0.156250 0.500000
vt 0.125000 1.000000
vt 0.125000 0.500000
vt 0.093750 1.000000
vt 0.093750 0.500000
vt 0.062500 1.000000
vt 0.062500 0.500000
vt 0.162748 0.039355
vt 0.158156 0.028269
vt 0.203178 0.014612
vt 0.250000 0.010000
vt 0.296822 0.014612
vt 0.341844 0.028269
vt 0.383337 0.050447
vt 0.419706 0.080294
vt 0.449553 0.116663
vt 0.471731 0.158156
vt 0.485388 0.203178
vt 0.490000 0.250000
vt 0.485388 0.296822
vt 0.471731 0.341844
vt 0.449553 0.383337
vt 0.419706 0.419706
vt 0.383337 0.449553
vt 0.341844 0.471731
vt 0.337252 0.460644
vt 0.376670 0.439575
vt 0.411220 0.411220
vt 0.439575 0.376670
vt 0.460644 0.337252
vt 0.473619 0.294481
vt 0.478000 0.250000
vt 0.473619 0.205519
vt 0.460644 0.162748
vt 0.439575 0.123330
vt 0.411220 0.088780
vt 0.376670 0.060425
vt 0.337252 0.039355
vt 0.294481 0.026381
vt 0.250000 0.022000
vt 0.205519 0.026381
vt 0.296822 0.485388
vt 0.250000 0.490000
vt 0.203178 0.485388
vt 0.158156 0.471731
vt 0.116663 0.449553
vt 0.080294 0.419706
vt 0.050447 0.383337
vt 0.028269 0.341844
vt 0.014612 0.296822
vt 0.010000 0.250000
vt 0.014612 0.203178
vt 0.028269 0.158156
vt 0.050447 0.116663
vt 0.080294 0.080294
vt 0.116663 0.050447
vt 0.123330 0.060425
vt 0.088780 0.088780
vt 0.060425 0.123330
vt 0.039355 0.162748
vt 0.026381 0.205519
vt 0.022000 0.250000
vt 0.026381 0.294481
vt 0.039355 0.337252
vt 0.060425 0.376670
vt 0.088780 0.411220
vt 0.123330 0.439575
vt 0.162748 0.460644
vt 0.205519 0.473619
vt 0.250000 0.478000
vt 0.294481 0.473619
vt 0.031250 1.000000
vt 0.031250 0.500000
vt 0.000000 1.000000
vt 0.000000 0.500000
vt 0.973619 0.294481
vt 0.985388 0.296822
vt 0.990000 0.250000
vt 0.985388 0.203178
vt 0.971731 0.158156
vt 0.949553 0.116663
vt 0.919706 0.080294
vt 0.883337 0.050447
vt 0.841844 0.028269
vt 0.796822 0.014612
vt 0.750000 0.010000
vt 0.703178 0.014612
vt 0.658156 0.028269
vt 0.616663 0.050447
vt 0.580294 0.080294
vt 0.550447 0.116663
vt 0.528269 0.158156
vt 0.514612 0.203178
vt 0.526381 0.205519
vt 0.539356 0.162748
vt 0.560425 0.123330
vt 0.588780 0.088780
vt 0.623330 0.060425
vt 0.662748 0.039355
vt 0.705519 0.026381
vt 0.750000 0.022000
vt 0.794481 0.026381
vt 0.837252 0.039355
vt 0.876670 0.060425
vt 0.911220 0.088780
vt 0.939575 0.123330
vt 0.960644 0.162748
vt 0.973619 0.205519
vt 0.978000 0.250000
vt 0.510000 0.250000
vt 0.514612 0.296822
vt 0.528269 0.341844
vt 0.550447 0.383337
vt 0.580294 0.419706
vt 0.616663 0.449553
vt 0.658156 0.471731
vt 0.703178 0.485388
vt 0.750000 0.490000
vt 0.796822 0.485388
vt 0.841844 0.471731
vt 0.883337 0.449553
vt 0.919706 0.419706
vt 0.949553 0.383337
vt 0.971731 0.341844
vt 0.960644 0.337252
vt 0.939575 0.376670
vt 0.911220 0.411220
vt 0.876670 0.439575
vt 0.837252 0.460644
vt 0.794480 0.473619
vt 0.750000 0.478000
vt 0.705519 0.473619
vt 0.662748 0.460645
vt 0.623330 0.439575
vt 0.588780 0.411220
vt 0.560425 0.376670
vt 0.539355 0.337252
vt 0.526381 0.294481
vt 0.522000 0.250000
vt 1.000000 1.000000
vt 1.000000 0.500000
vt 0.968750 0.500000
vt 0.968750 1.000000
vt 0.937500 0.500000
vt 0.937500 1.000000
vt 0.906250 0.500000
vt 0.906250 1.000000
vt 0.875000 0.500000
vt 0.875000 1.000000
vt 0.843750 1.000000
vt 0.843750 0.500000
vt 0.812500 0.500000
vt 0.812500 1.000000
vt 0.781250 1.000000
vt 0.781250 0.500000
vt 0.750000 1.000000
vt 0.750000 0.500000
vt 0.718750 1.000000
vt 0.718750 0.500000
vt 0.687500 0.500000
vt 0.687500 1.000000
vt 0.656250 0.500000
vt 0.656250 1.000000
vt 0.625000 1.000000
vt 0.625000 0.500000
vt 0.593750 1.000000
vt 0.593750 0.500000
vt 0.562500 0.500000
vt 0.562500 1.000000
vt 0.531250 1.000000
vt 0.531250 0.500000
vt 0.500000 1.000000
vt 0.500000 0.500000
vt 0.468750 1.000000
vt 0.468750 0.500000
vt 0.437500 0.500000
vt 0.437500 1.000000
vt 0.406250 0.500000
vt 0.406250 1.000000
vt 0.375000 1.000000
vt 0.375000 0.500000
vt 0.343750 0.500000
vt 0.343750 1.000000
vt 0.312500 0.500000
vt 0.312500 1.000000
vt 0.281250 0.500000
vt 0.281250 1.000000
vt 0.250000 0.500000
vt 0.250000 1.000000
vt 0.218750 0.500000
vt 0.218750 1.000000
vt 0.187500 0.500000
vt 0.187500 1.000000
vt 0.156250 0.500000
vt 0.156250 1.000000
vt 0.125000 0.500000
vt 0.125000 1.000000
vt 0.093750 0.500000
vt 0.093750 1.000000
vt 0.062500 0.500000
vt 0.062500 1.000000
vt 0.031250 0.500000
vt 0.031250 1.000000
vt 0.000000 0.500000
vt 0.000000 1.000000
vn 0.0980 0.0000 -0.9952
vn 0.2903 0.0000 -0.9569
vn 0.4714 0.0000 -0.8819
vn 0.6344 0.0000 -0.7730
vn 0.7730 0.0000 -0.6344
vn 0.8819 0.0000 -0.4714
vn 0.9569 0.0000 -0.2903
vn 0.9952 0.0000 -0.0980
vn 0.9952 0.0000 0.0980
vn 0.9569 0.0000 0.2903
vn 0.8819 0.0000 0.4714
vn 0.7730 0.0000 0.6344
vn 0.6344 0.0000 0.7730
vn 0.4714 0.0000 0.8819
vn 0.2903 0.0000 0.9569
vn 0.0980 0.0000 0.9952
vn -0.0980 0.0000 0.9952
vn -0.2903 0.0000 0.9569
vn -0.4714 0.0000 0.8819
vn -0.6344 0.0000 0.7730
vn -0.7730 0.0000 0.6344
vn -0.8819 0.0000 0.4714
vn -0.9569 0.0000 0.2903
vn -0.9952 0.0000 0.0980
vn -0.9952 0.0000 -0.0980
vn -0.9569 0.0000 -0.2903
vn -0.8819 0.0000 -0.4714
vn -0.7730 0.0000 -0.6344
vn -0.6344 0.0000 -0.7730
vn -0.4714 0.0000 -0.8819
vn 0.0000 1.0000 -0.0000
vn -0.2903 0.0000 -0.9569
vn -0.0980 0.0000 -0.9952
vn 0.0000 -1.0000 -0.0000
usemtl Material
s off
f 1/1/1 3/2/1 7/3/1 5/4/1
f 5/4/2 7/3/2 11/5/2 9/6/2
f 9/6/3 11/5/3 15/7/3 13/8/3
f 13/8/4 15/7/4 19/9/4 17/10/4
f 17/10/5 19/9/5 23/11/5 21/12/5
f 21/12/6 23/11/6 27/13/6 25/14/6
f 25/14/7 27/13/7 31/15/7 29/16/7
f 29/16/8 31/15/8 35/17/8 33/18/8
f 33/18/9 35/17/9 39/19/9 37/20/9
f 37/20/10 39/19/10 43/21/10 41/22/10
f 41/22/11 43/21/11 47/23/11 45/24/11
f 45/24/12 47/23/12 51/25/12 49/26/12
f 49/26/13 51/25/13 56/27/13 54/28/13
f 54/28/14 56/27/14 60/29/14 58/30/14
f 58/30/15 60/29/15 63/31/15 62/32/15
f 62/32/16 63/31/16 68/33/16 65/34/16
f 65/34/17 68/33/17 72/35/17 70/36/17
f 70/36/18 72/35/18 75/37/18 73/38/18
f 73/38/19 75/37/19 80/39/19 78/40/19
f 78/40/20 80/39/20 84/41/20 82/42/20
f 82/42/21 84/41/21 88/43/21 85/44/21
f 85/44/22 88/43/22 92/45/22 89/46/22
f 89/46/23 92/45/23 96/47/23 94/48/23
f 94/48/24 96/47/24 99/49/24 98/50/24
f 98/50/25 99/49/25 104/51/25 101/52/25
f 101/52/26 104/51/26 108/53/26 105/54/26
f 105/54/27 108/53/27 111/55/27 109/56/27
f 109/56/28 111/55/28 116/57/28 114/58/28
f 114/58/29 116/57/29 120/59/29 117/60/29
f 117/60/30 120/59/30 124/61/30 121/62/30
f 76/63/31 75/64/31 72/65/31 68/66/31 63/67/31 60/68/31 56/69/31 51/70/31 47/71/31 43/72/31 39/73/31 35/74/31 31/75/31 27/76/31 23/77/31 19/78/31 15/79/31 11/80/31 12/81/31 16/82/31 20/83/31 24/84/31 28/85/31 32/86/31 36/87/31 40/88/31 44/89/31 48/90/31 52/91/31 55/92/31 59/93/31 64/94/31 67/95/31 71/96/31
f 12/81/31 11/80/31 7/97/31 3/98/31 128/99/31 124/100/31 120/101/31 116/102/31 111/103/31 108/104/31 104/105/31 99/106/31 96/107/31 92/108/31 88/109/31 84/110/31 80/111/31 75/64/31 76/63/31 79/112/31 83/113/31 87/114/31 91/115/31 95/116/31 100/117/31 103/118/31 107/119/31 112/120/31 115/121/31 119/122/31 123/123/31 127/124/31 4/125/31 8/126/31
f 121/62/32 124/61/32 128/127/32 126/128/32
f 126/128/33 128/127/33 3/129/33 1/130/33
f 30/131/34 29/132/34 33/133/34 37/134/34 41/135/34 45/136/34 49/137/34 54/138/34 58/139/34 62/140/34 65/141/34 70/142/34 73/143/34 78/144/34 82/145/34 85/146/34 89/147/34 94/148/34 93/149/34 90/150/34 86/151/34 81/152/34 77/153/34 74/154/34 69/155/34 66/156/34 61/157/34 57/158/34 53/159/34 50/160/34 46/161/34 42/162/34 38/163/34 34/164/34
f 93/149/34 94/148/34 98/165/34 101/166/34 105/167/34 109/168/34 114/169/34 117/170/34 121/171/34 126/172/34 1/173/34 5/174/34 9/175/34 13/176/34 17/177/34 21/178/34 25/179/34 29/132/34 30/131/34 26/180/34 22/181/34 18/182/34 14/183/34 10/184/34 6/185/34 2/186/34 125/187/34 122/188/34 118/189/34 113/190/34 110/191/34 106/192/34 102/193/34 97/194/34
f 4/195/17 2/196/17 6/197/17 8/198/17
f 8/198/18 6/197/18 10/199/18 12/200/18
f 12/200/19 10/199/19 14/201/19 16/202/19
f 18/203/20 20/204/20 16/202/20 14/201/20
f 24/205/21 20/204/21 18/203/21 22/206/21
f 22/206/22 26/207/22 28/208/22 24/205/22
f 32/209/23 28/208/23 26/207/23 30/210/23
f 36/211/24 32/209/24 30/210/24 34/212/24
f 40/213/25 36/211/25 34/212/25 38/214/25
f 40/213/26 38/214/26 42/215/26 44/216/26
f 44/216/27 42/215/27 46/217/27 48/218/27
f 52/219/28 48/218/28 46/217/28 50/220/28
f 55/221/29 52/219/29 50/220/29 53/222/29
f 53/222/30 57/223/30 59/224/30 55/221/30
f 64/225/32 59/224/32 57/223/32 61/226/32
f 67/227/33 64/225/33 61/226/33 66/228/33
f 71/229/1 67/227/1 66/228/1 69/230/1
f 71/229/2 69/230/2 74/231/2 76/232/2
f 76/232/3 74/231/3 77/233/3 79/234/3
f 83/235/4 79/234/4 77/233/4 81/236/4
f 83/235/5 81/236/5 86/237/5 87/238/5
f 87/238/6 86/237/6 90/239/6 91/240/6
f 93/241/7 95/242/7 91/240/7 90/239/7
f 97/243/8 100/244/8 95/242/8 93/241/8
f 100/244/9 97/243/9 102/245/9 103/246/9
f 103/246/10 102/245/10 106/247/10 107/248/10
f 107/248/11 106/247/11 110/249/11 112/250/11
f 113/251/12 115/252/12 112/250/12 110/249/12
f 115/252/13 113/251/13 118/253/13 119/254/13
f 119/254/14 118/253/14 122/255/14 123/256/14
f 125/257/15 127/258/15 123/256/15 122/255/15
f 2/259/16 4/260/16 127/258/16 125/257/16
